<svg xmlns="http://www.w3.org/2000/svg" viewBox="0 0 245.61 80.00" role="img" aria-label="squadra"><title>squadra</title><g transform="translate(8,8)"><polygon points="7,48 14,48 22,16 15,16" fill="#FFFFFF"></polygon><polygon points="20,48 27,48 35,16 28,16" fill="#FFFFFF"></polygon><polygon points="33,48 40,48 48,16 41,16" fill="#F7913D"></polygon><polygon points="46,48 53,48 61,16 54,16" fill="#E23E7B"></polygon></g><path transform="translate(80.52,49.04)" d="M1.482 -6.6499999999999995H6.84Q6.992 -5.434 8.036999999999999 -4.636Q9.081999999999999 -3.838 10.64 -3.838Q12.16 -3.838 13.015 -4.446Q13.87 -5.054 13.87 -6.004Q13.87 -7.03 12.825 -7.542999999999999Q11.78 -8.056 9.5 -8.664Q7.144 -9.234 5.643 -9.841999999999999Q4.1419999999999995 -10.45 3.0589999999999997 -11.704Q1.976 -12.958 1.976 -15.086Q1.976 -16.834 2.9829999999999997 -18.278Q3.9899999999999998 -19.721999999999998 5.8709999999999996 -20.558Q7.752 -21.394 10.298 -21.394Q14.06 -21.394 16.302 -19.512999999999998Q18.544 -17.631999999999998 18.772 -14.44H13.68Q13.565999999999999 -15.693999999999999 12.634999999999998 -16.435Q11.703999999999999 -17.176 10.145999999999999 -17.176Q8.702 -17.176 7.923 -16.644Q7.144 -16.112 7.144 -15.161999999999999Q7.144 -14.097999999999999 8.208 -13.547Q9.272 -12.996 11.514 -12.426Q13.794 -11.856 15.276 -11.248000000000001Q16.758 -10.64 17.841 -9.367Q18.924 -8.094 18.962 -6.004Q18.962 -4.18 17.955 -2.7359999999999998Q16.948 -1.292 15.067 -0.47500000000000003Q13.186 0.34199999999999997 10.677999999999999 0.34199999999999997Q8.094 0.34199999999999997 6.042 -0.589Q3.9899999999999998 -1.52 2.7929999999999997 -3.1159999999999997Q1.5959999999999999 -4.712 1.482 -6.6499999999999995Z M31.008 -21.355999999999998Q33.25 -21.355999999999998 34.979 -20.500999999999998Q36.708 -19.646 37.772 -18.316V-21.052H43.129999999999995V10.032H37.772V-2.888Q36.708 -1.52 34.922 -0.608Q33.135999999999996 0.304 30.894 0.304Q28.233999999999998 0.304 26.011 -1.083Q23.788 -2.4699999999999998 22.496000000000002 -4.9399999999999995Q21.204 -7.41 21.204 -10.564Q21.204 -13.718 22.515 -16.169Q23.826 -18.62 26.067999999999998 -19.988Q28.31 -21.355999999999998 31.008 -21.355999999999998ZM32.186 -16.72Q30.78 -16.72 29.506999999999998 -15.998Q28.233999999999998 -15.276 27.436 -13.889Q26.637999999999998 -12.501999999999999 26.637999999999998 -10.564Q26.637999999999998 -8.626 27.436 -7.201Q28.233999999999998 -5.776 29.506999999999998 -5.054Q30.78 -4.332 32.186 -4.332Q33.629999999999995 -4.332 34.903 -5.054Q36.176 -5.776 36.974000000000004 -7.1819999999999995Q37.772 -8.588 37.772 -10.526Q37.772 -12.464 36.974000000000004 -13.870000000000001Q36.176 -15.276 34.903 -15.998Q33.629999999999995 -16.72 32.186 -16.72Z M67.44999999999999 -21.052V0.0H62.09199999999999V-2.66Q61.06599999999999 -1.292 59.41299999999999 -0.513Q57.75999999999999 0.266 55.821999999999996 0.266Q53.35199999999999 0.266 51.45199999999999 -0.7789999999999999Q49.55199999999999 -1.8239999999999998 48.468999999999994 -3.8569999999999998Q47.385999999999996 -5.89 47.385999999999996 -8.702V-21.052H52.705999999999996V-9.462Q52.705999999999996 -6.954 53.959999999999994 -5.605Q55.21399999999999 -4.256 57.379999999999995 -4.256Q59.58399999999999 -4.256 60.837999999999994 -5.605Q62.09199999999999 -6.954 62.09199999999999 -9.462V-21.052Z M80.17999999999998 -21.394Q82.53599999999999 -21.394 84.30299999999998 -20.444Q86.06999999999998 -19.494 87.13399999999999 -18.05V-21.052H92.49199999999999V0.0H87.13399999999999V-3.078Q86.10799999999998 -1.5959999999999999 84.30299999999998 -0.627Q82.49799999999999 0.34199999999999997 80.14199999999998 0.34199999999999997Q77.48199999999999 0.34199999999999997 75.29699999999998 -1.026Q73.11199999999998 -2.394 71.83899999999998 -4.883Q70.56599999999999 -7.372 70.56599999999999 -10.602Q70.56599999999999 -13.794 71.83899999999998 -16.264Q73.11199999999998 -18.733999999999998 75.29699999999998 -20.064Q77.48199999999999 -21.394 80.17999999999998 -21.394ZM81.54799999999999 -16.72Q80.06599999999999 -16.72 78.81199999999998 -15.998Q77.55799999999998 -15.276 76.77899999999998 -13.889Q75.99999999999999 -12.501999999999999 75.99999999999999 -10.602Q75.99999999999999 -8.702 76.77899999999998 -7.276999999999999Q77.55799999999998 -5.851999999999999 78.83099999999999 -5.092Q80.10399999999998 -4.332 81.54799999999999 -4.332Q83.02999999999999 -4.332 84.32199999999997 -5.073Q85.61399999999998 -5.814 86.37399999999998 -7.201Q87.13399999999999 -8.588 87.13399999999999 -10.526Q87.13399999999999 -12.464 86.37399999999998 -13.850999999999999Q85.61399999999998 -15.238 84.32199999999997 -15.979Q83.02999999999999 -16.72 81.54799999999999 -16.72Z M105.22199999999998 -21.394Q107.27399999999997 -21.394 109.13599999999997 -20.500999999999998Q110.99799999999998 -19.608 112.09999999999997 -18.126V-28.12H117.49599999999998V0.0H112.09999999999997V-3.116Q111.11199999999997 -1.558 109.32599999999996 -0.6080000000000001Q107.53999999999998 0.34199999999999997 105.18399999999997 0.34199999999999997Q102.52399999999997 0.34199999999999997 100.31999999999996 -1.026Q98.11599999999997 -2.394 96.84299999999998 -4.883Q95.56999999999998 -7.372 95.56999999999998 -10.602Q95.56999999999998 -13.794 96.84299999999998 -16.264Q98.11599999999997 -18.733999999999998 100.31999999999996 -20.064Q102.52399999999997 -21.394 105.22199999999998 -21.394ZM106.55199999999998 -16.72Q105.06999999999998 -16.72 103.81599999999997 -15.998Q102.56199999999997 -15.276 101.78299999999997 -13.889Q101.00399999999998 -12.501999999999999 101.00399999999998 -10.602Q101.00399999999998 -8.702 101.78299999999997 -7.276999999999999Q102.56199999999997 -5.851999999999999 103.83499999999998 -5.092Q105.10799999999998 -4.332 106.55199999999998 -4.332Q108.03399999999998 -4.332 109.32599999999996 -5.073Q110.61799999999997 -5.814 111.37799999999997 -7.201Q112.13799999999998 -8.588 112.13799999999998 -10.526Q112.13799999999998 -12.464 111.37799999999997 -13.850999999999999Q110.61799999999997 -15.238 109.32599999999996 -15.979Q108.03399999999998 -16.72 106.55199999999998 -16.72Z M133.72199999999995 -21.355999999999998V-15.77H132.31599999999997Q129.80799999999996 -15.77 128.53499999999997 -14.591999999999999Q127.26199999999997 -13.414 127.26199999999997 -10.488V0.0H121.94199999999996V-21.052H127.26199999999997V-17.784Q128.28799999999995 -19.456 129.94099999999997 -20.406Q131.59399999999997 -21.355999999999998 133.72199999999995 -21.355999999999998Z M144.77999999999997 -21.394Q147.13599999999997 -21.394 148.90299999999996 -20.444Q150.67 -19.494 151.73399999999998 -18.05V-21.052H157.09199999999998V0.0H151.73399999999998V-3.078Q150.70799999999997 -1.5959999999999999 148.90299999999996 -0.627Q147.09799999999998 0.34199999999999997 144.742 0.34199999999999997Q142.08199999999997 0.34199999999999997 139.897 -1.026Q137.712 -2.394 136.43899999999996 -4.883Q135.16599999999997 -7.372 135.16599999999997 -10.602Q135.16599999999997 -13.794 136.43899999999996 -16.264Q137.712 -18.733999999999998 139.897 -20.064Q142.08199999999997 -21.394 144.77999999999997 -21.394ZM146.14799999999997 -16.72Q144.66599999999997 -16.72 143.41199999999998 -15.998Q142.158 -15.276 141.37899999999996 -13.889Q140.59999999999997 -12.501999999999999 140.59999999999997 -10.602Q140.59999999999997 -8.702 141.37899999999996 -7.276999999999999Q142.158 -5.851999999999999 143.43099999999998 -5.092Q144.70399999999998 -4.332 146.14799999999997 -4.332Q147.62999999999997 -4.332 148.92199999999997 -5.073Q150.21399999999997 -5.814 150.974 -7.201Q151.73399999999998 -8.588 151.73399999999998 -10.526Q151.73399999999998 -12.464 150.974 -13.850999999999999Q150.21399999999997 -15.238 148.92199999999997 -15.979Q147.62999999999997 -16.72 146.14799999999997 -16.72Z" fill="#FFFFFF"></path></svg>